<svg width="32" height="32" viewBox="0 0 32 32" fill="none" xmlns="http://www.w3.org/2000/svg">
  <defs>
    <linearGradient id="qrGrad" x1="0%" y1="0%" x2="100%" y2="100%">
      <stop offset="0%" style="stop-color:#3B82F6;stop-opacity:1" />
      <stop offset="100%" style="stop-color:#8B5CF6;stop-opacity:1" />
    </linearGradient>
  </defs>
  
  <rect x="4" y="4" width="24" height="24" rx="4" fill="url(#qrGrad)" />
  
  <rect x="6" y="6" width="6" height="6" rx="1" fill="white" />
  <rect x="7" y="7" width="4" height="4" rx="0.5" fill="url(#qrGrad)" />
  
  <rect x="20" y="6" width="6" height="6" rx="1" fill="white" />
  <rect x="21" y="7" width="4" height="4" rx="0.5" fill="url(#qrGrad)" />
  
  <rect x="6" y="20" width="6" height="6" rx="1" fill="white" />
  <rect x="7" y="21" width="4" height="4" rx="0.5" fill="url(#qrGrad)" />
  
  <rect x="14" y="14" width="4" height="4" rx="0.5" fill="white" />
  <rect x="15" y="15" width="2" height="2" rx="0.2" fill="url(#qrGrad)" />
  
  <rect x="14" y="8" width="1" height="1" fill="white" />
  <rect x="16" y="8" width="1" height="1" fill="white" />
  <rect x="8" y="14" width="1" height="1" fill="white" />
  <rect x="8" y="16" width="1" height="1" fill="white" />
  
  <circle cx="26" cy="8" r="2" fill="#F59E0B" />
  <path d="M26 7 L26.5 8 L26 9 L25.5 8 Z" fill="white" />
</svg>